<svg width="34" height="34" viewBox="0 0 34 34" fill="none" xmlns="http://www.w3.org/2000/svg">
<mask id="mask0_15_1405" style="mask-type:luminance" maskUnits="userSpaceOnUse" x="11" y="0" width="12" height="12">
<path d="M11.4895 0H22.571V11.1536H11.4895V0Z" fill="white"/>
</mask>
<g mask="url(#mask0_15_1405)">
<path fillRule="evenodd" clipRule="evenodd" d="M11.6849 5.70471V5.31644C11.6849 2.40571 14.0723 0 16.983 0C19.9134 0 22.3008 2.40571 22.3008 5.31644V5.70471C22.3008 8.63511 19.9134 11.0225 16.983 11.0225C14.0723 11.0225 11.6849 8.63511 11.6849 5.70471Z" fill="#016DD6"/>
</g>
<mask id="mask1_15_1405" style="mask-type:luminance" maskUnits="userSpaceOnUse" x="0" y="11" width="34" height="23">
<path d="M0 11.4893H34V33.9998H0V11.4893Z" fill="white"/>
</mask>
<g mask="url(#mask1_15_1405)">
<path fillRule="evenodd" clipRule="evenodd" d="M5.30076 11.6821H11.8214C13.0045 12.7289 14.4802 13.4084 16.1094 13.6025V17.5416C14.635 17.9299 13.5673 19.2692 13.5673 20.8406C13.5673 20.88 13.5673 20.8996 13.5673 20.939C13.5673 20.977 13.5673 20.9967 13.5673 21.0361C13.5673 21.0557 13.5673 21.0741 13.5673 21.1135C13.5673 21.1515 13.5673 21.1712 13.5673 21.1908V21.2105C13.5869 21.2302 13.5869 21.2499 13.5869 21.2879C13.5869 21.3076 13.5869 21.3469 13.6066 21.3653V21.385C13.6066 21.4047 13.6066 21.4243 13.6066 21.444V21.4637C13.6263 21.4834 13.6263 21.5017 13.6263 21.5214V21.5608L13.646 21.6198V21.6395L13.6656 21.6972V21.7169L13.6853 21.7759L13.705 21.8139V21.8533L13.7247 21.8913L13.7444 21.9307V21.9687L13.764 22.0081L13.785 22.0474V22.0854L13.8047 22.1248L13.8244 22.1628L13.844 22.2219L13.8637 22.2415L13.8834 22.2796L13.9031 22.3189C14.4461 23.4824 15.6293 24.2787 16.9883 24.2787C18.3656 24.2787 19.5501 23.4824 20.0931 22.3189L20.1128 22.2796L20.1325 22.2415L20.1521 22.2219L20.1718 22.1628V22.1248L20.1915 22.0854L20.2112 22.0474L20.2505 21.9687V21.9307L20.2715 21.8913V21.8533L20.2912 21.8139L20.3109 21.7759V21.7169L20.3305 21.6972C20.3305 21.6775 20.3305 21.6591 20.3305 21.6395L20.3502 21.6198V21.5608L20.3699 21.5214C20.3699 21.5017 20.3699 21.4834 20.3699 21.4637V21.444C20.3896 21.4243 20.3896 21.4047 20.3896 21.385V21.3653C20.3896 21.3456 20.4092 21.3076 20.4092 21.2879C20.4092 21.2499 20.4092 21.2289 20.4092 21.2105V21.1908C20.4092 21.1712 20.4289 21.1515 20.4289 21.1135C20.4289 21.0741 20.4289 21.0544 20.4289 21.0361C20.4289 20.9967 20.4289 20.977 20.4289 20.939C20.4289 20.8996 20.4289 20.88 20.4289 20.8406C20.4289 19.2692 19.3612 17.9299 17.8868 17.5416V13.6025C19.516 13.4084 20.9917 12.7289 22.1565 11.6821H28.6758C31.6062 11.6821 33.9935 14.0878 33.9935 16.9999C33.9935 19.929 31.6075 22.3163 28.6758 22.3163H22.3113V28.6821C22.3113 31.6125 19.9239 33.9999 16.9935 33.9999C14.0828 33.9999 11.6954 31.6125 11.6954 28.6821V22.3163H5.30076C2.39003 22.3163 0.00268555 19.929 0.00268555 16.9999C0.00268555 14.0878 2.39003 11.6821 5.30076 11.6821Z" fill="#0987EC"/>
</g>
<path fillRule="evenodd" clipRule="evenodd" d="M16.983 19.095C17.9537 19.095 18.7289 19.8912 18.7289 20.8409C18.7289 21.8116 17.9523 22.6078 16.983 22.6078C16.032 22.6078 15.2371 21.8116 15.2371 20.8409C15.2371 19.8912 16.032 19.095 16.983 19.095Z" fill="#0A7CE5"/>
</svg>
